<svg width="174" height="147" viewBox="0 0 174 147" fill="none" xmlns="http://www.w3.org/2000/svg">
<path d="M158.646 95.6054C158.4 95.6812 158.165 95.7738 157.935 95.8767C156.603 93.6627 154.963 91.6955 153.088 90.0176C153.232 89.8119 153.367 89.5985 153.487 89.3722C155.105 86.325 153.944 82.545 150.893 80.9301C147.842 79.3153 144.058 80.4763 142.439 83.5234C142.318 83.751 142.218 83.9824 142.128 84.2164C139.684 83.6083 137.134 83.3563 134.551 83.499C134.508 83.2521 134.452 83.0053 134.376 82.7597C133.363 79.4631 129.866 77.6117 126.564 78.6248C123.263 79.638 121.409 83.1313 122.422 86.4279C122.498 86.6735 122.59 86.9087 122.693 87.1376C120.476 88.4683 118.507 90.1063 116.826 91.9809C116.62 91.8382 116.407 91.7019 116.179 91.5811C113.128 89.9662 109.345 91.1272 107.726 94.1744C106.108 97.2215 107.269 101.002 110.32 102.616C110.548 102.737 110.779 102.836 111.015 102.926C110.405 105.367 110.153 107.915 110.293 110.494C110.047 110.538 109.8 110.593 109.553 110.669C106.251 111.682 104.397 115.175 105.41 118.472C106.423 121.769 109.921 123.62 113.222 122.607C113.468 122.531 113.703 122.438 113.933 122.336C115.265 124.55 116.905 126.517 118.78 128.195C118.636 128.4 118.501 128.614 118.381 128.84C116.763 131.887 117.924 135.667 120.975 137.282C124.026 138.897 127.81 137.736 129.429 134.689C129.55 134.461 129.65 134.23 129.74 133.996C132.184 134.604 134.734 134.856 137.317 134.713C137.361 134.96 137.416 135.207 137.492 135.453C138.505 138.749 142.002 140.601 145.304 139.587C148.606 138.574 150.46 135.081 149.446 131.784C149.371 131.539 149.278 131.304 149.175 131.075C151.392 129.744 153.361 128.106 155.042 126.231C155.248 126.374 155.461 126.51 155.689 126.631C158.74 128.246 162.524 127.085 164.142 124.038C165.76 120.991 164.599 117.211 161.548 115.596C161.32 115.475 161.089 115.376 160.853 115.286C161.464 112.844 161.715 110.297 161.575 107.718C161.822 107.674 162.068 107.619 162.315 107.543C165.617 106.53 167.471 103.037 166.458 99.7403C165.445 96.4437 161.948 94.5922 158.646 95.6054ZM139.343 120.192C133.213 122.073 126.717 118.635 124.835 112.513C122.953 106.39 126.397 99.9023 132.528 98.0213C138.658 96.1402 145.153 99.5783 147.036 105.701C148.918 111.824 145.474 118.311 139.343 120.192Z" fill="#7F56D9"/>
<path d="M157.938 21.0457C157.642 21.137 157.359 21.2489 157.083 21.371C155.481 18.707 153.507 16.34 151.249 14.3214C151.422 14.0732 151.586 13.8174 151.73 13.5448C153.677 9.87791 152.279 5.3303 148.609 3.38628C144.938 1.44355 140.384 2.83985 138.437 6.50674C138.292 6.77931 138.171 7.0596 138.063 7.34117C135.123 6.60831 132.054 6.30745 128.947 6.47717C128.894 6.18016 128.828 5.88316 128.738 5.58744C127.519 1.62098 123.309 -0.607179 119.338 0.611688C115.365 1.83056 113.134 6.03487 114.353 10.0013C114.444 10.2971 114.556 10.5799 114.679 10.8551C112.013 12.4558 109.642 14.4268 107.62 16.682C107.371 16.5097 107.116 16.3464 106.842 16.2011C103.171 14.2584 98.6169 15.6547 96.6703 19.3216C94.7237 22.9884 96.1212 27.5361 99.792 29.4801C100.066 29.6254 100.345 29.7449 100.626 29.8529C99.8923 32.7895 99.5889 35.856 99.7586 38.9584C99.4616 39.0112 99.1646 39.0767 98.8676 39.168C94.8959 40.3869 92.6639 44.5912 93.8828 48.5577C95.1017 52.5241 99.3112 54.7523 103.283 53.5334C103.578 53.4421 103.861 53.3303 104.138 53.2081C105.74 55.8721 107.713 58.2392 109.971 60.2578C109.799 60.5059 109.634 60.7618 109.49 61.0343C107.544 64.7012 108.941 69.2488 112.613 71.1928C116.284 73.1356 120.838 71.7393 122.785 68.0724C122.93 67.7998 123.051 67.5195 123.159 67.238C126.099 67.9708 129.168 68.2717 132.276 68.102C132.329 68.399 132.396 68.696 132.486 68.9917C133.704 72.9581 137.914 75.1863 141.886 73.9674C145.857 72.7486 148.089 68.5443 146.87 64.5778C146.779 64.2821 146.667 63.9992 146.544 63.7241C149.21 62.1233 151.581 60.1523 153.604 57.8972C153.852 58.0694 154.108 58.2327 154.381 58.378C158.052 60.3208 162.606 58.9245 164.553 55.2576C166.5 51.5907 165.102 47.0431 161.43 45.0991C161.156 44.9538 160.877 44.8342 160.595 44.7262C161.33 41.7896 161.633 38.7231 161.463 35.6207C161.76 35.568 162.057 35.5024 162.354 35.4111C166.326 34.1923 168.558 29.9879 167.339 26.0215C166.12 22.055 161.911 19.8268 157.939 21.0457H157.938ZM134.71 50.6302C127.334 52.8931 119.518 48.7557 117.252 41.3885C114.988 34.0212 119.132 26.2143 126.509 23.9502C133.886 21.6873 141.702 25.8248 143.967 33.192C146.231 40.5592 142.087 48.3661 134.71 50.6302Z" fill="white"/>
<path d="M139.679 74.5874C136.34 74.5874 133.242 72.4287 132.213 69.0794C132.148 68.8711 132.092 68.6474 132.042 68.4018C129.108 68.5394 126.179 68.2617 123.328 67.5764C123.233 67.8078 123.135 68.0161 123.032 68.209C121.016 72.0083 116.281 73.4611 112.478 71.4477C110.635 70.4718 109.283 68.8377 108.671 66.8461C108.06 64.8558 108.261 62.7459 109.238 60.906C109.341 60.7132 109.459 60.5152 109.597 60.3069C107.429 58.3372 105.554 56.0717 104.022 53.5697C103.789 53.6661 103.576 53.7433 103.363 53.8088C99.2491 55.0714 94.8724 52.7545 93.6099 48.6454C92.9979 46.6538 93.1984 44.5439 94.1756 42.704C95.1527 40.8642 96.7882 39.5129 98.7811 38.9021C98.9894 38.8379 99.2131 38.7813 99.4599 38.7311C99.3224 35.801 99.6014 32.8772 100.289 30.0293C100.057 29.9342 99.8482 29.8365 99.6554 29.7349C97.8129 28.7591 96.4603 27.1249 95.8483 25.1333C95.2376 23.143 95.4382 21.0331 96.4153 19.1933C98.4326 15.3939 103.167 13.9424 106.97 15.9545C107.163 16.0574 107.361 16.1744 107.57 16.3132C109.544 14.1468 111.812 12.2748 114.318 10.7435C114.221 10.512 114.143 10.296 114.079 10.0878C113.467 8.09745 113.667 5.98629 114.644 4.14642C115.622 2.30654 117.257 0.955247 119.25 0.344528C123.365 -0.918054 127.741 1.39882 129.003 5.508C129.068 5.71629 129.124 5.94 129.174 6.18558C132.11 6.048 135.037 6.32572 137.888 7.01101C137.984 6.77958 138.081 6.57129 138.184 6.37715C140.201 2.57783 144.935 1.12625 148.738 3.13841C150.581 4.11427 151.933 5.74843 152.545 7.74002C153.156 9.73032 152.955 11.8402 151.978 13.6801C151.875 13.8729 151.757 14.0709 151.619 14.2792C153.788 16.2502 155.662 18.5144 157.194 21.0164C157.427 20.92 157.643 20.8416 157.851 20.7773C161.967 19.5147 166.342 21.8316 167.605 25.9407C168.217 27.9323 168.016 30.0422 167.039 31.8821C166.062 33.722 164.427 35.0732 162.434 35.684C162.225 35.7483 162.002 35.8048 161.755 35.855C161.892 38.7851 161.613 41.7102 160.925 44.5568C161.157 44.6519 161.365 44.7496 161.559 44.8512C163.402 45.8271 164.754 47.4612 165.366 49.4528C165.977 51.4431 165.777 53.553 164.799 55.3928C162.783 59.1922 158.048 60.645 154.245 58.6316C154.052 58.53 153.854 58.4117 153.644 58.2729C151.671 60.4393 149.403 62.3113 146.897 63.8426C146.993 64.0741 147.072 64.2901 147.136 64.4984C147.748 66.4899 147.547 68.5998 146.57 70.4397C145.593 72.2796 143.958 73.6309 141.965 74.2416C141.204 74.4756 140.434 74.5862 139.676 74.5862L139.679 74.5874ZM132.274 67.8232C132.411 67.8232 132.529 67.921 132.553 68.056C132.611 68.3787 132.677 68.6577 132.755 68.9122C133.926 72.7231 137.986 74.8716 141.802 73.7003C143.65 73.1333 145.168 71.881 146.074 70.1735C146.98 68.4674 147.167 66.5105 146.599 64.6642C146.52 64.4096 146.417 64.1409 146.285 63.8426C146.227 63.7115 146.275 63.5585 146.398 63.4852C149.009 61.9179 151.364 59.9752 153.392 57.7123C153.488 57.6056 153.647 57.5876 153.765 57.6686C154.034 57.8563 154.28 58.0067 154.515 58.1314C158.042 59.9983 162.434 58.6509 164.304 55.128C165.21 53.4218 165.396 51.4662 164.83 49.6199C164.263 47.7724 163.01 46.2578 161.3 45.3526C161.064 45.2279 160.801 45.1109 160.496 44.9939C160.362 44.9425 160.288 44.7998 160.322 44.6609C161.059 41.714 161.348 38.6784 161.181 35.639C161.174 35.4963 161.274 35.3703 161.414 35.3445C161.737 35.2867 162.017 35.2211 162.272 35.1427C164.121 34.5757 165.638 33.3234 166.544 31.6159C167.451 29.9098 167.637 27.9529 167.069 26.1066C165.897 22.2944 161.838 20.1473 158.022 21.3173C157.765 21.3957 157.504 21.496 157.199 21.631C157.068 21.6889 156.915 21.6413 156.842 21.5178C155.273 18.9104 153.328 16.5601 151.063 14.5325C150.956 14.4374 150.937 14.2766 151.019 14.1596C151.205 13.8922 151.357 13.6479 151.483 13.4114C152.388 11.7052 152.575 9.74961 152.009 7.90331C151.442 6.05572 150.188 4.54113 148.478 3.63598C144.952 1.76911 140.56 3.11527 138.689 6.63944C138.564 6.87473 138.446 7.13701 138.329 7.44302C138.277 7.57673 138.135 7.6513 137.996 7.61659C135.045 6.88115 132.006 6.59315 128.964 6.7603C128.818 6.76801 128.695 6.66772 128.669 6.52758C128.611 6.20486 128.546 5.92586 128.467 5.67129C127.296 1.85911 123.237 -0.288049 119.421 0.881961C117.572 1.44897 116.055 2.70126 115.148 4.4087C114.242 6.11486 114.056 8.07174 114.624 9.91804C114.702 10.1713 114.804 10.44 114.938 10.7396C114.995 10.8708 114.948 11.0238 114.824 11.097C112.213 12.6643 109.859 14.6071 107.83 16.87C107.735 16.9767 107.575 16.9947 107.457 16.9137C107.188 16.7272 106.944 16.5755 106.708 16.4508C103.181 14.5839 98.7888 15.9314 96.9181 19.4543C96.0129 21.1604 95.8265 23.116 96.3922 24.9623C96.9592 26.8099 98.2128 28.3245 99.9228 29.2296C100.157 29.3543 100.42 29.4713 100.726 29.5883C100.86 29.6398 100.935 29.7825 100.9 29.9213C100.163 32.8695 99.8739 35.9051 100.041 38.9433C100.049 39.086 99.9485 39.212 99.8084 39.2377C99.4857 39.2956 99.2054 39.3611 98.9508 39.4396C97.1019 40.0066 95.5847 41.2589 94.6783 42.9663C93.7719 44.6725 93.5854 46.6293 94.1537 48.4756C95.325 52.2878 99.3841 54.4363 103.2 53.265C103.457 53.1865 103.718 53.0863 104.023 52.9513C104.153 52.8934 104.307 52.941 104.38 53.0644C105.95 55.6731 107.894 58.0234 110.16 60.0485C110.266 60.1436 110.286 60.3043 110.203 60.4213C110.017 60.6887 109.865 60.9343 109.739 61.1696C108.834 62.8758 108.648 64.8314 109.213 66.6777C109.78 68.5252 111.034 70.0398 112.744 70.945C116.272 72.8118 120.663 71.4644 122.534 67.9415C122.658 67.7062 122.777 67.4439 122.894 67.1392C122.945 67.0055 123.088 66.9309 123.227 66.9657C126.177 67.7011 129.217 67.9878 132.259 67.822C132.264 67.822 132.269 67.822 132.274 67.822V67.8232ZM130.614 51.5331C124.517 51.5331 118.863 47.5924 116.982 41.4749C115.865 37.8388 116.231 33.9868 118.016 30.6259C119.799 27.265 122.787 24.8003 126.427 23.683C133.942 21.3777 141.931 25.6065 144.238 33.1112C145.355 36.7473 144.989 40.5993 143.204 43.9602C141.421 47.3211 138.433 49.7858 134.793 50.9031C133.403 51.33 131.997 51.5318 130.614 51.5318V51.5331ZM130.605 23.62C129.277 23.62 127.927 23.8142 126.593 24.2243C123.097 25.2966 120.228 27.6649 118.516 30.8908C116.803 34.118 116.451 37.817 117.523 41.3077C119.328 47.1809 124.759 50.9648 130.613 50.9661C131.941 50.9661 133.291 50.772 134.626 50.3618C138.122 49.2895 140.99 46.9212 142.703 43.6953C144.415 40.4682 144.768 36.7691 143.695 33.2784C141.89 27.4052 136.458 23.62 130.605 23.62Z" fill="black"/>
<path d="M91.7812 67.3669C91.4289 67.4749 91.092 67.6086 90.7642 67.7539C88.8587 64.5858 86.511 61.7714 83.8264 59.3697C84.0321 59.0752 84.2262 58.7705 84.3985 58.4452C86.7141 54.084 85.0517 48.675 80.6853 46.3633C76.319 44.0515 70.9022 45.714 68.5879 50.0752C68.4156 50.4004 68.2716 50.7322 68.1431 51.0664C64.6459 50.196 60.9957 49.836 57.3005 50.0392C57.2375 49.6856 57.1591 49.3333 57.0511 48.981C55.6008 44.2624 50.5954 41.6125 45.8704 43.0628C41.1453 44.5118 38.4916 49.512 39.9419 54.2306C40.0499 54.5829 40.1836 54.9185 40.3302 55.2463C37.1583 57.1505 34.3387 59.4957 31.9331 62.1777C31.6387 61.9733 31.3326 61.7791 31.0073 61.6068C26.641 59.2951 21.2242 60.9575 18.9099 65.3187C16.5943 69.6799 18.2568 75.0889 22.6231 77.4007C22.9484 77.573 23.2801 77.7157 23.6157 77.8442C22.7427 81.3376 22.3814 84.9839 22.5846 88.6739C22.231 88.7369 21.8774 88.8153 21.5251 88.9233C16.8 90.3723 14.1463 95.3725 15.5966 100.091C17.0469 104.81 22.0523 107.46 26.7773 106.009C27.1296 105.901 27.4665 105.768 27.7943 105.622C29.6998 108.79 32.0475 111.606 34.7321 114.007C34.5264 114.301 34.3322 114.606 34.16 114.931C31.8444 119.292 33.5068 124.701 37.8731 127.013C42.2395 129.325 47.6563 127.662 49.9706 123.301C50.1429 122.976 50.2869 122.644 50.4154 122.31C53.9126 123.18 57.5628 123.54 61.258 123.337C61.321 123.691 61.3994 124.043 61.5074 124.395C62.9577 129.114 67.9631 131.764 72.6881 130.313C77.4132 128.864 80.0669 123.864 78.6166 119.146C78.5086 118.793 78.3749 118.458 78.2283 118.13C81.4002 116.226 84.2198 113.881 86.6254 111.199C86.9199 111.403 87.2259 111.597 87.5511 111.769C91.9175 114.081 97.3343 112.419 99.6486 108.057C101.964 103.696 100.302 98.2873 95.9354 95.9755C95.6101 95.8032 95.2784 95.6605 94.9428 95.532C95.8158 92.0386 96.1771 88.3923 95.974 84.7023C96.3275 84.6393 96.6811 84.5609 97.0334 84.4529C101.758 83.0039 104.412 78.0037 102.962 73.2851C101.512 68.5665 96.5063 65.9166 91.7812 67.3669ZM64.1547 102.553C55.3809 105.246 46.0851 100.324 43.3915 91.5616C40.6979 82.7994 45.6274 73.5139 54.4012 70.8216C63.175 68.1293 72.4708 73.0511 75.1644 81.8133C77.858 90.5755 72.9286 99.861 64.1547 102.553Z" fill="white"/>
<path d="M70.0666 130.995C66.1181 130.995 62.4564 128.442 61.2388 124.481C61.1591 124.221 61.0897 123.944 61.0279 123.635C57.5128 123.805 54.004 123.472 50.5891 122.646C50.4708 122.937 50.35 123.198 50.2227 123.437C47.8376 127.929 42.2396 129.647 37.7421 127.266C35.5628 126.113 33.9646 124.18 33.2408 121.825C32.5182 119.471 32.756 116.976 33.9106 114.801C34.0379 114.56 34.1858 114.315 34.3593 114.054C31.7583 111.696 29.5134 108.983 27.6813 105.982C27.3907 106.104 27.1207 106.203 26.8623 106.283C21.9971 107.776 16.822 105.037 15.328 100.177C14.6041 97.8228 14.842 95.3272 15.9978 93.1518C17.1537 90.9751 19.0875 89.3782 21.4442 88.6556C21.7039 88.5759 21.9829 88.5065 22.2915 88.4448C22.1231 84.9347 22.4561 81.4298 23.2841 78.0188C22.9935 77.9005 22.7325 77.7797 22.4921 77.6524C20.3127 76.4991 18.7146 74.5666 17.9907 72.2112C17.2681 69.857 17.506 67.3627 18.6606 65.1873C21.0456 60.6949 26.645 58.9772 31.1412 61.3571C31.3816 61.4844 31.6272 61.6322 31.8895 61.8058C34.2513 59.2074 36.9681 56.965 39.9728 55.1342C39.8507 54.8449 39.7517 54.5749 39.672 54.3165C38.9481 51.9623 39.186 49.4667 40.3418 47.2912C41.4977 45.1158 43.4315 43.5189 45.7882 42.7951C50.6534 41.3023 55.8284 44.0409 57.3225 48.901C57.4022 49.1607 57.4716 49.4384 57.5333 49.747C61.0472 49.5773 64.5573 49.9103 67.9722 50.7357C68.0905 50.4451 68.2113 50.1854 68.3386 49.945C70.7236 45.4527 76.323 43.7349 80.8192 46.1161C82.9985 47.2694 84.5966 49.2018 85.3205 51.5573C86.0431 53.9115 85.8052 56.4058 84.6506 58.5812C84.5234 58.8216 84.3755 59.0672 84.2019 59.3282C86.803 61.6862 89.0478 64.4004 90.88 67.4C91.1706 67.2779 91.4406 67.1789 91.699 67.0991C96.5642 65.6064 101.739 68.345 103.233 73.2051C103.957 75.5592 103.719 78.0548 102.563 80.2303C101.409 82.407 99.4738 84.0039 97.1171 84.7264C96.8573 84.8062 96.5784 84.8756 96.2698 84.9373C96.4382 88.4486 96.1052 91.9535 95.2772 95.3633C95.5678 95.4815 95.8288 95.6024 96.0679 95.7297C98.2472 96.883 99.8454 98.8154 100.569 101.171C101.292 103.525 101.054 106.019 99.8994 108.195C97.5144 112.687 91.9163 114.405 87.4188 112.025C87.1797 111.898 86.9328 111.75 86.6705 111.576C84.3086 114.175 81.5906 116.417 78.5871 118.249C78.7093 118.538 78.8083 118.808 78.888 119.067C79.6119 121.421 79.374 123.917 78.2181 126.092C77.0635 128.268 75.1285 129.864 72.7718 130.588C71.8718 130.865 70.9615 130.996 70.0653 130.996L70.0666 130.995ZM61.2594 123.058C61.3957 123.058 61.5139 123.155 61.5384 123.29C61.6078 123.676 61.6862 124.011 61.7801 124.315C63.1815 128.877 68.039 131.447 72.6072 130.046C74.82 129.367 76.6354 127.868 77.7206 125.825C78.8044 123.782 79.0281 121.44 78.3493 119.231C78.2554 118.928 78.1333 118.607 77.9738 118.248C77.916 118.117 77.9636 117.964 78.087 117.89C81.1985 116.024 84.0014 113.709 86.4185 111.013C86.5137 110.906 86.6731 110.888 86.7914 110.969C87.1128 111.193 87.406 111.374 87.6875 111.524C91.9086 113.758 97.1646 112.146 99.4031 107.929C100.487 105.887 100.711 103.546 100.032 101.337C99.353 99.1266 97.8525 97.3124 95.8069 96.2298C95.5253 96.0807 95.2103 95.9405 94.8452 95.8004C94.7115 95.749 94.6369 95.6063 94.6716 95.4674C95.5485 91.9574 95.8931 88.3419 95.6951 84.7213C95.6873 84.5786 95.7876 84.4526 95.9278 84.4269C96.3199 84.3562 96.6452 84.2803 96.9538 84.1852C99.1665 83.5063 100.982 82.0071 102.067 79.9654C103.151 77.9224 103.375 75.5811 102.695 73.3709C101.293 68.8092 96.4343 66.2377 91.8674 67.6404C91.5627 67.7343 91.2413 67.8564 90.8826 68.0159C90.7514 68.0737 90.5984 68.0261 90.5251 67.9027C88.6557 64.7964 86.3401 61.9974 83.6413 59.5828C83.5346 59.4876 83.5153 59.3269 83.5976 59.2099C83.8213 58.8898 84.0026 58.5966 84.1518 58.3151C85.2356 56.2733 85.4594 53.932 84.7805 51.7231C84.1016 49.513 82.6012 47.6988 80.5556 46.6162C76.3345 44.3817 71.0785 45.994 68.84 50.2111C68.6909 50.4927 68.5494 50.8077 68.4093 51.1716C68.3579 51.3053 68.2152 51.3799 68.0763 51.3451C64.5611 50.4696 60.9418 50.1263 57.3173 50.3256C57.172 50.3346 57.0486 50.233 57.0229 50.0928C56.9535 49.7071 56.875 49.3728 56.7812 49.0681C55.3784 44.5064 50.5223 41.9349 45.9541 43.3376C43.7413 44.0165 41.9259 45.5157 40.8407 47.5574C39.7568 49.6004 39.5331 51.9417 40.212 54.1506C40.3058 54.454 40.428 54.7755 40.5874 55.1342C40.6453 55.2653 40.5977 55.4183 40.4743 55.4916C37.3628 57.3598 34.5599 59.6728 32.1427 62.369C32.0476 62.4757 31.8882 62.4937 31.7699 62.4127C31.4485 62.189 31.1553 62.0077 30.8737 61.8585C26.6514 59.6239 21.3966 61.2362 19.1582 65.4534C18.0743 67.4951 17.8506 69.8364 18.5294 72.0453C19.2083 74.2555 20.7088 76.0696 22.7544 77.1522C23.0359 77.3014 23.3509 77.4415 23.7161 77.5817C23.8498 77.6331 23.9244 77.7758 23.8896 77.9147C23.0128 81.426 22.6682 85.0414 22.8662 88.6608C22.8739 88.8035 22.7736 88.9295 22.6335 88.9552C22.2414 89.0259 21.9161 89.1018 21.6075 89.1969C19.3947 89.8758 17.5793 91.3749 16.4941 93.4167C15.4103 95.4597 15.1866 97.801 15.8654 100.011C17.2669 104.573 22.1243 107.143 26.6925 105.742C26.9973 105.648 27.3187 105.526 27.6774 105.366C27.8073 105.308 27.9616 105.356 28.0349 105.479C29.9043 108.587 32.2199 111.386 34.9186 113.799C35.0253 113.894 35.0446 114.055 34.9623 114.172C34.7386 114.492 34.5573 114.785 34.4082 115.067C33.3243 117.109 33.1006 119.45 33.7795 121.659C34.4583 123.869 35.9588 125.683 38.0044 126.767C42.2254 129.002 47.4815 127.389 49.7199 123.172C49.8691 122.891 50.0105 122.577 50.1507 122.212C50.2021 122.078 50.3448 122.003 50.4837 122.038C53.9989 122.914 57.6182 123.257 61.2426 123.058C61.2478 123.058 61.2529 123.058 61.2581 123.058H61.2594ZM59.2858 103.574C52.0574 103.574 45.3523 98.9016 43.1229 91.6488C41.7986 87.339 42.2331 82.7709 44.3482 78.7864C46.4632 74.8019 50.0041 71.8795 54.3203 70.5552C63.2304 67.8217 72.7024 72.8361 75.4371 81.7333C76.7614 86.043 76.3268 90.6112 74.2118 94.5957C72.0968 98.5801 68.5559 101.503 64.2397 102.827C62.5927 103.332 60.9251 103.573 59.2858 103.573V103.574ZM59.2755 70.3752C57.6902 70.3752 56.0792 70.6079 54.4874 71.0965C50.3165 72.3758 46.8939 75.2018 44.8496 79.0525C42.8053 82.9033 42.3849 87.3172 43.6655 91.4829C46.3089 100.082 55.4646 104.929 64.0751 102.287C68.246 101.008 71.6686 98.1816 73.7129 94.3308C75.7572 90.4801 76.1777 86.0662 74.8971 81.9004C72.7435 74.8919 66.2621 70.3752 59.2768 70.3752H59.2755Z" fill="black"/>
<path d="M59.0077 139.697C29.5722 139.697 5.62549 115.75 5.62549 86.3146C5.62549 56.8792 29.5722 32.9326 59.0077 32.9326C63.4576 32.9326 67.8818 33.4816 72.1543 34.5642C72.306 34.6028 72.3973 34.7571 72.3587 34.9088C72.3201 35.0605 72.1671 35.1518 72.0141 35.1132C67.7866 34.0422 63.41 33.4996 59.0064 33.4996C29.8833 33.4996 6.18993 57.193 6.18993 86.3159C6.18993 115.439 29.8833 139.132 59.0064 139.132C75.2953 139.132 90.427 131.784 100.519 118.973C100.615 118.85 100.794 118.829 100.916 118.926C101.039 119.022 101.06 119.201 100.964 119.323C90.7626 132.272 75.4701 139.698 59.0064 139.698L59.0077 139.697Z" fill="black"/>
<path d="M59.0077 144.353C27.0072 144.353 0.971191 118.318 0.971191 86.3179C0.971191 67.2866 10.3223 49.4433 25.9838 38.5867C26.1123 38.498 26.2885 38.5288 26.3772 38.6574C26.4659 38.786 26.4338 38.9621 26.3065 39.0508C10.7967 49.8021 1.53692 67.4705 1.53692 86.3167C1.53692 118.006 27.3171 143.786 59.0064 143.786C59.1633 143.786 59.2893 143.913 59.2893 144.069C59.2893 144.224 59.162 144.352 59.0064 144.352L59.0077 144.353Z" fill="black"/>
<path d="M135.662 146.649C122.154 146.649 109.656 139.322 103.045 127.527C102.969 127.39 103.017 127.218 103.155 127.141C103.291 127.065 103.463 127.113 103.54 127.25C110.051 138.867 122.359 146.082 135.663 146.082C155.954 146.082 172.462 129.575 172.462 109.283C172.462 98.4988 167.753 88.294 159.544 81.2855C159.426 81.1839 159.412 81.0052 159.512 80.8856C159.613 80.7673 159.792 80.7519 159.912 80.8535C168.247 87.97 173.029 98.3329 173.029 109.282C173.029 129.886 156.267 146.648 135.663 146.648L135.662 146.649Z" fill="black"/>
</svg>
